# xmcd CD Database Entry
#
# Track frame offsets:
# 150
# 5515
# 25422
# 44175
# 61405
# 85412
# 109075
# 127329
# 151652
# 178550
# 202090
# 224745
# 243365
#
# Disc length: 3508 seconds
#
# Revision: 1
# Processed by: cddbd v1.4PL0 Copyright (c) Steve Scherf et al.
# Submitted via: tcd 2.0b
#
DISCID=c20db20d
DTITLE=Sonata Arctica/ SONGS IN SILENCE
DYEAR=1900
DGENRE=
TTITLE0=Spur 1
TTITLE1=Spur 2
TTITLE2=Spur 3
TTITLE3=Spur 4
TTITLE4=Spur 5
TTITLE5=Spur 6
TTITLE6=Spur 7
TTITLE7=Spur 8
TTITLE8=Spur 9
TTITLE9=Spur 10
TTITLE10=Spur 11
TTITLE11=Spur 12
TTITLE12=Spur 13
EXTD=
EXTT0=inTRO
EXTT1=
EXTT2=
EXTT3=SING IN SILENCE
EXTT4=
EXTT5=
EXTT6=
EXTT7=Fullmoon
EXTT8=THE END OF THIS CHAPTER
EXTT9=REPLICA
EXTT10=
EXTT11=BLACK SHEEP
EXTT12=WOLF RAVEN
PLAYORDER=
